<?xml version="1.0" encoding="iso-8859-1"?>
<!-- Generator: Adobe Illustrator 19.0.0, SVG Export Plug-In . SVG Version: 6.00 Build 0)  -->
<svg version="1.1" id="Capa_1" xmlns="http://www.w3.org/2000/svg" xmlns:xlink="http://www.w3.org/1999/xlink" x="0px" y="0px"
	 viewBox="0 0 480 480" style="enable-background:new 0 0 480 480;" xml:space="preserve">
<path style="fill:#4398D1;" d="M336,120l-32-64H176l-32,64H8v304h464V120H336z"/>
<path style="fill:#3E8CC7;" d="M400,120h72v304h-72V120z"/>
<path style="fill:#DE4C3C;" d="M8,184h464v200H8V184z"/>
<path style="fill:#CF4031;" d="M384,272c0.011-31.876-10.614-62.845-30.192-88H126.192C78.133,245.891,88.548,334.88,149.6,384
	h180.8C364.309,356.713,384.021,315.525,384,272L384,272z"/>
<circle style="fill:#FDB62F;" cx="240" cy="272" r="120"/>
<path style="fill:#FFA83D;" d="M320.608,183.288c-38.308,72.077-97.398,130.975-169.6,169.048
	c44.402,49.105,120.205,52.918,169.311,8.516s52.918-120.205,8.516-169.311C326.228,188.659,323.482,185.904,320.608,183.288z"/>
<g>
	<circle style="fill:#87CED9;" cx="240" cy="272" r="88"/>
	<path style="fill:#87CED9;" d="M368,88h64v32h-64V88z"/>
	<path style="fill:#87CED9;" d="M288,112h-96c-4.418,0-8-3.582-8-8s3.582-8,8-8h96c4.418,0,8,3.582,8,8S292.418,112,288,112z"/>
	<path style="fill:#87CED9;" d="M72,88h48v32H72V88z"/>
	<path style="fill:#87CED9;" d="M24,88h48v32H24V88z"/>
</g>
<path style="fill:#78C3CF;" d="M64,88h16v32H64V88z"/>
<path style="fill:#2A7DB8;" d="M124,164c-6.627,0-12-5.373-12-12s5.373-12,12-12s12,5.373,12,12S130.627,164,124,164z"/>
<g>
	<path style="fill:#87CED9;" d="M32,144h64v16H32V144z"/>
	<circle style="fill:#87CED9;" cx="408" cy="328" r="24"/>
</g>
<circle style="fill:#78C3CF;" cx="240" cy="272" r="56"/>
<path style="fill:#87CED9;" d="M384,216h16v16h-16V216z"/>
<path style="fill:#78C3CF;" d="M184.8,340.504c37.744,30.576,93.128,24.766,123.704-12.978c26.148-32.278,26.148-78.448,0-110.726
	L184.8,340.504z"/>
<circle style="fill:#6BB6C2;" cx="240" cy="272" r="24"/>
<path d="M240,176c-53.019,0-96,42.981-96,96s42.981,96,96,96s96-42.981,96-96C335.943,219.004,292.996,176.057,240,176z M240,352
	c-44.183,0-80-35.817-80-80s35.817-80,80-80s80,35.817,80,80C319.952,316.163,284.163,351.952,240,352z"/>
<path d="M472,112h-32V88c0-4.418-3.582-8-8-8h-64c-4.418,0-8,3.582-8,8v24h-19.056L311.2,52.424c-1.362-2.725-4.153-4.441-7.2-4.424
	H176c-3.032-0.001-5.805,1.712-7.16,4.424L139.056,112H128V88c0-4.418-3.582-8-8-8H24c-4.418,0-8,3.582-8,8v24H8
	c-4.418,0-8,3.582-8,8v304c0,4.418,3.582,8,8,8h464c4.418,0,8-3.582,8-8V120C480,115.582,476.418,112,472,112z M376,96h48v16h-48V96
	z M112,112H80V96h32V112z M32,96h32v16H32V96z M24,128h120c3.032,0.001,5.805-1.712,7.16-4.424L180.944,64h118.112l29.784,59.576
	c1.355,2.712,4.128,4.425,7.16,4.424h128v48H324.376c-48.153-42.684-120.599-42.684-168.752,0H16v-48H24z M464,376H314.352
	c0.32-0.232,0.624-0.48,0.936-0.712c3.613-2.636,7.085-5.462,10.4-8.464l0.8-0.72c14.657-13.46,25.982-30.145,33.08-48.736
	c0.184-0.48,0.344-0.96,0.52-1.44c1.256-3.408,2.4-6.864,3.328-10.4c0.44-1.6,0.864-3.2,1.248-4.8s0.728-3.2,1.04-4.8
	c0.613-3.2,1.107-6.427,1.48-9.68c0.104-0.944,0.176-1.896,0.264-2.848c0.344-3.768,0.576-7.56,0.576-11.392
	c0-4-0.232-7.944-0.6-11.88c-0.168-1.776-0.448-3.512-0.688-5.264c-0.28-2.024-0.552-4.048-0.928-6.056
	c-0.416-2.256-0.92-4.472-1.448-6.688c-0.336-1.368-0.68-2.72-1.056-4.08c-0.693-2.539-1.464-5.04-2.312-7.504
	c-0.296-0.864-0.624-1.72-0.944-2.576c-1.032-2.8-2.112-5.6-3.328-8.272c-0.088-0.192-0.184-0.376-0.272-0.568
	c-4.416-9.698-10.021-18.808-16.688-27.12H464L464,376z M315.752,354.256c-8.05,7.423-17.147,13.623-27,18.4l-1.6,0.752
	c-2.256,1.048-4.552,2.04-6.896,2.944c-25.902,10.165-54.69,10.165-80.592,0c-2.344-0.904-4.64-1.896-6.896-2.944l-1.6-0.752
	c-29.623-14.502-51.428-41.228-59.688-73.16c-0.24-0.952-0.52-1.896-0.736-2.856c-0.384-1.696-0.696-3.424-1.008-5.144
	s-0.608-3.648-0.84-5.496c-0.168-1.32-0.344-2.64-0.464-4c-0.224-3.264-0.432-6.608-0.432-10c0.001-3.831,0.196-7.66,0.584-11.472
	c0.36-3.52,0.912-6.992,1.6-10.4c0.048-0.224,0.064-0.456,0.104-0.68c0.704-3.416,1.6-6.768,2.6-10.072
	c0.064-0.224,0.112-0.448,0.176-0.672c0.888-2.832,1.952-5.6,3.056-8.32c0.28-0.712,0.504-1.44,0.8-2.144
	c0.928-2.184,2.016-4.28,3.08-6.4c0.64-1.256,1.216-2.544,1.904-3.784c0.848-1.544,1.824-3.008,2.744-4.512
	c1.104-1.792,2.192-3.592,3.408-5.328c0.672-0.968,1.408-1.88,2.112-2.824c1.664-2.216,3.352-4.408,5.184-6.512
	c0.464-0.536,0.952-1.048,1.424-1.6c2.16-2.4,4.408-4.712,6.784-6.944c42.918-40.489,109.962-40.489,152.88,0
	c2.4,2.232,4.624,4.552,6.784,6.944c0.472,0.52,0.96,1.032,1.424,1.6c1.832,2.104,3.52,4.296,5.184,6.512
	c0.704,0.944,1.44,1.856,2.112,2.824c1.216,1.736,2.304,3.536,3.408,5.328c0.92,1.504,1.896,2.968,2.744,4.512
	c0.688,1.24,1.264,2.528,1.904,3.784c1.064,2.112,2.152,4.208,3.08,6.4c0.304,0.704,0.528,1.432,0.8,2.144
	c1.104,2.728,2.168,5.488,3.056,8.32c0.064,0.224,0.112,0.448,0.176,0.672c1.008,3.304,1.896,6.656,2.6,10.072
	c0,0.224,0.056,0.456,0.104,0.68c0.68,3.416,1.232,6.888,1.6,10.4c0.388,3.812,0.583,7.641,0.584,11.472
	c0,3.392-0.208,6.736-0.512,10.056c-0.12,1.328-0.296,2.648-0.464,4c-0.232,1.848-0.52,3.672-0.8,5.496s-0.624,3.448-1.008,5.144
	c-0.216,0.968-0.496,1.904-0.736,2.856c-5.426,21.001-16.772,40-32.688,54.736L315.752,354.256z M164.712,375.288
	c0.312,0.232,0.616,0.48,0.936,0.712H16V192h124.24c-6.653,8.307-12.248,17.409-16.656,27.096c-0.088,0.2-0.192,0.392-0.28,0.592
	c-1.216,2.696-2.296,5.456-3.328,8.256c-0.312,0.864-0.648,1.712-0.944,2.584c-0.848,2.469-1.619,4.971-2.312,7.504
	c-0.376,1.36-0.72,2.712-1.056,4.08c-0.528,2.216-1.032,4.432-1.448,6.688c-0.376,2.008-0.648,4-0.928,6.056
	c-0.24,1.752-0.52,3.488-0.688,5.264c-0.368,3.936-0.6,7.88-0.6,11.88c0,3.832,0.232,7.624,0.576,11.392
	c0.088,0.952,0.16,1.904,0.264,2.848c0.373,3.264,0.867,6.491,1.48,9.68c0.312,1.6,0.68,3.2,1.04,4.8s0.8,3.2,1.248,4.8
	c0.96,3.528,2.072,6.984,3.32,10.4c0.176,0.48,0.344,0.968,0.528,1.448c7.096,18.592,18.421,35.277,33.08,48.736l0.8,0.72
	C157.644,369.826,161.107,372.651,164.712,375.288L164.712,375.288z M16,416v-24h179.88c28.446,10.666,59.794,10.666,88.24,0H464v24
	H16z"/>
<path d="M192,112h96c4.418,0,8-3.582,8-8s-3.582-8-8-8h-96c-4.418,0-8,3.582-8,8S187.582,112,192,112z"/>
<path d="M124,164c6.627,0,12-5.373,12-12s-5.373-12-12-12s-12,5.373-12,12S117.373,164,124,164z M124,148c2.209,0,4,1.791,4,4
	s-1.791,4-4,4s-4-1.791-4-4S121.791,148,124,148z"/>
<path d="M32,144h64v16H32V144z"/>
<path d="M408,360c17.673,0,32-14.327,32-32s-14.327-32-32-32s-32,14.327-32,32S390.327,360,408,360z M408,312
	c8.837,0,16,7.163,16,16s-7.163,16-16,16s-16-7.163-16-16S399.163,312,408,312z"/>
<path d="M240,208c-35.346,0-64,28.654-64,64s28.654,64,64,64s64-28.654,64-64C303.96,236.67,275.33,208.04,240,208z M240,320
	c-26.51,0-48-21.49-48-48s21.49-48,48-48s48,21.49,48,48C287.974,298.499,266.499,319.974,240,320z"/>
<path d="M384,216h16v16h-16V216z"/>
<g>
</g>
<g>
</g>
<g>
</g>
<g>
</g>
<g>
</g>
<g>
</g>
<g>
</g>
<g>
</g>
<g>
</g>
<g>
</g>
<g>
</g>
<g>
</g>
<g>
</g>
<g>
</g>
<g>
</g>
</svg>
